<svg id="Layer_1" height="512" viewBox="0 0 512 512" width="512" xmlns="http://www.w3.org/2000/svg" data-name="Layer 1"><path d="m71.64 267.03h2.71v203.83h-2.71z" fill="#acbac2" transform="matrix(1 -.003 .003 1 -1.17 .23)"/><path d="m101.36 461.81a26.79 26.79 0 1 1 -25.36-28.15 26.8 26.8 0 0 1 25.35 28.15" fill="#e8af2e"/><path d="m96.52 461.56a21.95 21.95 0 1 1 -20.77-23.07 21.94 21.94 0 0 1 20.77 23.07" fill="#f9ca35"/><path d="m79.69 454.64c-.06-1.71-1.59-2.66-4.6-2.82s-4.59.55-4.68 2.16a2.23 2.23 0 0 0 1.35 2.23 30 30 0 0 0 5.79 1.84c2.92.73 5 1.79 6.33 3.2a6.86 6.86 0 0 1 1.78 5.28 6.36 6.36 0 0 1 -3.66 5.54 14.24 14.24 0 0 1 -7.71 1.6q-10.29-.59-11.29-8.58l5.73-.15q.4 4.2 5.89 4.5 5.13.29 5.33-3.19a2.53 2.53 0 0 0 -1.12-2.37 22.16 22.16 0 0 0 -5.76-2c-3-.78-5.2-1.81-6.5-3.12a5.94 5.94 0 0 1 -1.78-4.71 6.18 6.18 0 0 1 2.9-4.86q2.75-1.89 7.76-1.61 9.94.54 10 7.16z" fill="#c38728"/><path d="m59.13 452.24c-.49-2-.33-5.37.18-6.21s3.41-2.49 5.45-3c-2 .49-5.24.41-6.21-.18s-2.48-3.41-3-5.45c.5 2.09.42 5.23-.26 6.33s-3.38 2.38-5.38 2.86c2.05-.49 5.26-.41 6.21.18s2.49 3.41 3 5.45" fill="#fff"/><path d="m58.35 459.63a4.48 4.48 0 0 1 .06-2.21 4.34 4.34 0 0 1 2-1.06 4.21 4.21 0 0 1 -2.22-.07 4.15 4.15 0 0 1 -1.06-1.94 4 4 0 0 1 -.09 2.26 3.72 3.72 0 0 1 -1.91 1 4.16 4.16 0 0 1 2.21.07 4.1 4.1 0 0 1 1.06 1.94" fill="#fff"/><path d="m74 267s5.56 24.54 32.56 6.05c.03.03-20.48 11.88-32.56-6.05z" fill="#acbac2"/><path d="m106.59 273.11s5.73 24 35.46 10.33c0 0-26.6 9.35-35.46-10.33z" fill="#acbac2"/><path d="m142 282.91s5.74 24 35.46 10.33c0 0-26.6 9.35-35.46-10.33z" fill="#acbac2"/><path d="m71.31 267s65.46-6.36 125.77 33.11l-6.07 9s-37.57-32.93-119.7-42.11z" fill="#153442"/><path d="m396.37 237.15s-4.3 30.44 8.49 53.79c3.9 7.13 8 14.82 16.05 19.23 0 0-27.28.23-44.06-11.37-8.55-5.91-2.43-18.88-13.16-28.29z" fill="#fff46c"/><path d="m390 263.84s-9.26 13.28-13.33 16.57l-6.7-5.64 13.48-21.77z" fill="#f4d645"/><path d="m188.72 286.26c-3.62-1.33-10 7.07-9.92 11.07 0 .05-.1.45-.11.51-1 5.08 1.73 11.54 7 12.53 38.94 7.37 53.74-3.75 88.66-19.62-.84-7.38-2.22-14.21-3.68-21.47-30.32 11.8-49.41 28.95-81.95 16.98z" fill="#ffcfdd"/><path d="m254.1 283.52a81.3 81.3 0 0 1 18.29-7.15c-.22.16-.16-.07-.17-.11a43 43 0 0 1 -1.47-6.23c-.28-1.38 0-.09-.11-.58s0 .13 0-.17c-30 11.63-49.67 29.25-81.66 16.81-2.57-1-7.24 3.74-8.38 6.07 37.04 3.36 34.33 11.06 73.5-8.64z" fill="#ffdee9"/><path d="m397 358.15c-.38 3.71-6.56 8.22-12 7.74l-.41-.05c-5.76.19-11-5.27-10.68-9 2.24-27.49-.67-49.31-17.87-72.9 5.1-5.1 10-10.28 14.92-15.55 24.21 27.29 29.33 56.35 26.04 89.76z" fill="#ffdee9"/><path d="m375.88 286.53c-2.61-4.64-7.06-8.27-10.28-12.61 0 .14.12-.05.15-.08 1.38-1.35 3.76-3.91 4.76-5 .7-.75 0 0 .27-.31s-.09.11.11-.12c24.35 27.17 29.24 56.42 26.18 89.64-.24 2.66-4 6.13-7.34 7.25 3.72-26.72-.05-54.2-13.85-78.77z" fill="#ffe6f0"/><path d="m186.14 310.86-3.29-.37c-4-.44-6.89-3.48-6.53-6.76l1.49-13.43c.36-3.28 3.89-5.61 7.84-5.17l3.3.36h.23.14c3.76.58 6.51 3.54 6.16 6.71l-1.48 13.48c-.35 3.18-3.68 5.46-7.48 5.21h-.13z" fill="#ff99be"/><path d="m186.51 310.89h-.13c-3.76-.59-6.51-3.54-6.16-6.72l1.49-13.43c.35-3.18 3.67-5.46 7.47-5.21h.14c3.76.58 6.51 3.54 6.16 6.71l-1.48 13.44c-.36 3.18-3.69 5.46-7.49 5.21z" fill="#ffb0ca"/><path d="m399.08 356.17v3.32c0 4-2.7 7.23-6 7.23h-13.52c-3.3 0-6-3.25-6-7.23v-3.32a1.77 1.77 0 0 1 0-.23v-.14c.16-3.8 2.8-6.86 6-6.86h13.52c3.19 0 5.83 3.06 6 6.86v.14a1.77 1.77 0 0 1 0 .23z" fill="#ff99be"/><path d="m399.07 355.8v.14c-.16 3.8-2.8 6.86-6 6.86h-13.51c-3.19 0-5.83-3.06-6-6.86v-.14c.16-3.8 2.8-6.86 6-6.86h13.52c3.19 0 5.83 3.06 5.99 6.86z" fill="#ffb0ca"/><path d="m274.3 388c-11.14-15-18.09-36.29-18.09-59.9 0-45.44 25.78-82.29 57.57-82.29a42 42 0 0 1 17.76 4c23.1 10.7 39.81 41.72 39.81 78.3 0 23.61-7 44.9-18.1 59.9" fill="#ffcfdd"/><path d="m293.58 388c-9.39-14.64-15.09-34.73-15.09-56.16 0-43.28 23.37-78.75 53.05-82 23.1 10.7 39.81 41.72 39.81 78.3 0 23.46-7.08 44.91-18.1 59.9" fill="#ffdee9"/><path d="m386.16 149.55s41.78 12.51 23.24 47.71c-23.11 43.89-3.31 74.27 4.76 95.42 0 0-24.76-7.84-36.59-24.19-7.33-10.11-2.92-25.6-5.05-38.11z" fill="#65deee"/><path d="m397.8 194.53s.66 56.77-17.11 66.11l5.56-62.55z" fill="#22cee0"/><path d="m394.75 204.71-3-8.63 13-38s20.71 19.14-10 46.63z" fill="#22cee0"/><path d="m359.86 109.75s.71 0 1.95 0a51.56 51.56 0 0 1 48.63 48.25c.95 14.77-2.05 33.32-20.06 42.78l-30.52-91.06" fill="#ef8bd5"/><path d="m359.86 109.75s.71 0 1.95 0a51.56 51.56 0 0 1 48.63 48.25c.95 14.77-2.05 33.32-20.06 42.78l-30.52-91.06" fill="#ef8bd5"/><path d="m349.28 109.75s.7 0 1.94 0a51.58 51.58 0 0 1 48.64 48.25c.94 14.77-2.06 33.32-20.07 42.78l-30.51-91.06" fill="#e281ce"/><path d="m335.82 64.21s.71 0 1.95.06a51.58 51.58 0 0 1 48.64 48.23c.94 14.77-2.06 33.32-20.07 42.78z" fill="#fff46c"/><path d="m325.24 64.21s.7 0 1.95.06a51.58 51.58 0 0 1 48.63 48.23c.94 14.77-2.05 33.32-20.06 42.78z" fill="#f4d645"/><path d="m278.07 97.09s-13.2-31.59-47.34-15.69c0 0-4.57 33.74 32 40.12l15.29-24.43" fill="#ffcfdd"/><path d="m272.82 103.07s-8.26-22.65-38.24-18c0 0-2.07 24.21 26.5 32.56l14.53-16.12" fill="#ffb0ca"/><path d="m348.48 95.79s13.19-31.58 47.33-15.68c0 0 4.58 33.74-32 40.12z" fill="#ffdee9"/><path d="m353.72 101.78s8.28-22.66 38.28-18.05c0 0 2.07 24.2-26.5 32.55l-14.54-16.11" fill="#ffb0ca"/><path d="m393 215.79a96.88 96.88 0 0 1 -1.32 17.21c-6.75 40.26-39 56-71.42 58-1.54.11-3.08.17-4.62.2h-1.86-1.87c-33.88-.68-69-16-76-58.19a98.8 98.8 0 0 1 -1.29-17.19c.32-36.42 12.81-83.58 31.91-113 15.04-23.19 31.09-34.24 46.47-35.82a12.52 12.52 0 0 1 1.56 0 42 42 0 0 1 13.9 4c11 5.25 22 15.54 32.6 31.82 19.09 29.39 31.59 76.55 31.94 112.97z" fill="#ffcfdd"/><path d="m393 215.79a96.88 96.88 0 0 1 -1.32 17.21c-6.75 40.26-39 56-71.42 58-31.87-5.82-60.24-26.84-59.83-73.66 0-1.47 0-3 .11-4.48 1.22-35.73 13.47-80.3 31.8-108.47 11.72-18 24-28.72 36.12-33.35 11 5.25 22 15.54 32.6 31.82 19.09 29.35 31.59 76.51 31.94 112.93z" fill="#ffdee9"/><path d="m365.65 268.69c-4.41 21.33-25.45 29.69-46.57 30.72-1 .06-2 .09-3 .11h-2.43c-22.09-.36-45-8.48-49.58-30.83a49.47 49.47 0 0 1 16.07-10.69c9.69-4.22 21.71-6.72 34.71-6.72 21.82.02 40.83 7.03 50.8 17.41z" fill="#ffcfdd"/><path d="m391.68 233c-6.75 40.26-39 56-71.42 58-1.54.11-3.08.17-4.62.2h-1.86-1.87c-33.88-.68-69-16-76-58.19a77.39 77.39 0 0 1 24.67-20.15c14.87-8 33.29-12.67 53.24-12.67 33.42-.03 62.57 13.2 77.86 32.81z" fill="#fff0f6"/><path d="m260 232.83a9.46 9.46 0 0 1 -.91.59c-3.39 2-7.19 1.73-8.49-.51s.41-5.65 3.8-7.61a9.1 9.1 0 0 1 .93-.48c3.13-1.42 6.38-1 7.56 1s-.09 5.01-2.89 7.01z" fill="#745f82"/><path d="m260 232.83c-2.7 1.18-5.63.61-6.8-1.42s-.22-4.83 2.13-6.59c3.13-1.42 6.38-1 7.56 1s-.09 5.01-2.89 7.01z" fill="#816691"/><path d="m366.47 231a0 0 0 0 0 0 0c.29.2.6.4.91.58 3.39 2 7.2 1.73 8.49-.51s-.41-5.65-3.8-7.61a10.12 10.12 0 0 0 -.93-.47c-3.13-1.42-6.38-1.05-7.55 1s.12 5.01 2.88 7.01z" fill="#745f82"/><path d="m366.47 231a0 0 0 0 0 0 0c2.71 1.17 5.63.61 6.8-1.43s.22-4.83-2.13-6.58c-3.13-1.42-6.38-1.05-7.55 1s.12 5.01 2.88 7.01z" fill="#816691"/><path d="m341.62 277.09a22.54 22.54 0 0 1 -6.37 5.63l-.85.48c-.32.17-.64.33-1 .48-6.44 3.05-15.23 3.37-26.8-1.13a46.43 46.43 0 0 1 -10.1-5.43 49.59 49.59 0 0 1 -9.65-9c-.23-.27-.45-.55-.67-.83l-.18-.29c-.16-.21-.32-.41-.47-.62a59.26 59.26 0 0 1 -5.22-8.26c-12.17-23.24-8-50.71 2.65-38.37a14.89 14.89 0 0 1 1.04 1.35h.05c.19.26.38.56.58.84 8.36 12.31 30.13 15.09 30.13 15.09 13.7 2.11 18.7-4.79 26.94 1.65l.06.05c.38.29.76.62 1.15 1l.31.29c.12.1.23.21.35.33l.52.53c5.74 5.86 6.47 24.83-2.47 36.21z" fill="#8d3f7a"/><path d="m333.43 283.68c-6.44 3.05-15.23 3.37-26.8-1.13a46.43 46.43 0 0 1 -10.1-5.43 49.59 49.59 0 0 1 -9.65-9c-.23-.27-.45-.55-.67-.83 24.32-14.57 40.28 4.71 47.22 16.39z" fill="#ff99be"/><path d="m342.07 238.71c-1.48 4.39-2.54 6.17-3.92 7.71a8.25 8.25 0 0 1 -2.52 1.92c-19.12 8.75-38.27-1-46.91-6.66a17.41 17.41 0 0 1 -5-4.23 14.21 14.21 0 0 1 -2.13-6.28 24.25 24.25 0 0 1 .95-10.62c.11-.34.23-.67.35-1 .36.41.72.87 1.09 1.38.19.26.39.56.58.84 8.5 12.43 30.37 15.23 30.37 15.23 13.77 2.13 18.8-4.8 27.07 1.66z" fill="#fefefe"/><g opacity=".42"><path d="m353.61 92.43 3.08 4s-13.34-8.6-21.25-7.87a24.27 24.27 0 0 0 -14.53 5.1l-12.69 10.56s-6.47 5.55-9.41 7.65c-.64.46-2.82 2-3.49 2.41-3.09 1.93-10.49 5.45-14.4 6.37 0 0-14.61 3.74-25.42 2.47l1.67-3.57s21.54.55 24.57-2l26.85-20.42s17.41-17.13 27.77-14.02c0 0 13.21 4 17.25 9.32" fill="#ffb0ca"/></g><path d="m252.05 103.51s11.88 3 23.2 0c7.73-2 14.86-8.84 19.08-13.54 0 0 6.76-7.63 11.81-12.85a39.32 39.32 0 0 1 7.65-6.12l-1.42.92c.35-.22 2.95-1.74 3.34-1.89a19.16 19.16 0 0 1 18.57 3.62s-3.06-18.48-18.28-21.74a26.25 26.25 0 0 0 -15.39 1.38 36.4 36.4 0 0 0 -10.7 6.71c-3.09 2.79-9 11.17-10.85 14.92-3.44 6.94-13.43 27.62-27.01 28.59z" fill="#ef8bd5"/><path d="m342.45 76.19c-10.16-8.25-23.19 1.1-23.19 1.1l-5 3c-5 3-18.16 18.81-18.16 18.81-11.93 13-22.18 12.55-22.18 12.55-4.06 1.47-11.54.55-17.38-.56-4.67-.89-8.29-1.9-8.29-1.9 15.59-1.1 26.39-19.16 30.34-27 2.13-4.21 8.93-13.62 12.48-16.75a41.9 41.9 0 0 1 11.17-7.08 31.45 31.45 0 0 1 17.85-2.22 27.49 27.49 0 0 1 16.23 9 28.92 28.92 0 0 1 6.13 11.05z" fill="#fff46c"/><path d="m342.45 76.19c-10.16-8.25-23.19 1.1-23.19 1.1l-5 3c-5 3-18.16 18.81-18.16 18.81-11.93 13-22.18 12.55-22.18 12.55-4.06 1.47-11.54.55-17.38-.56 10.3-6.31 17.54-16.54 20.87-21.91 2.62-4.23 10.92-13.71 15.23-16.89a54.85 54.85 0 0 1 14.91-7.66 44.71 44.71 0 0 1 21.36-1.75 28.08 28.08 0 0 1 7.41 2.27 28.92 28.92 0 0 1 6.13 11.04z" fill="#f4d645"/><path d="m354.31 92.92c-10.83-7.25-18.46-8.76-26-6.41-.49.15-3.5 1.6-4.44 2h-.06a55.37 55.37 0 0 0 -8.83 6c-7.06 5.92-16.54 14.57-16.54 14.57-10.9 9.84-20.58 12.11-24.74 12.63-1.37.17-2.74.37-4.1.6-8.11 1.36-22.74-1.36-27.5-2.32l-1.53-.33c18.84-1.26 32-19.44 36.9-27.27 2.62-4.23 10.92-13.71 15.23-16.89a54.57 54.57 0 0 1 14.88-7.5 44.71 44.71 0 0 1 21.36-1.76c14.88 2.45 21.39 14.75 23.94 21.78a34.77 34.77 0 0 1 1.43 4.9z" fill="#22cee0"/><path d="m352.88 88c-10.65-7-18.21-8.51-25.67-6.19-.48.16-3.5 1.6-4.43 2h-.06a55.32 55.32 0 0 0 -8.83 6c-7.06 5.92-16.54 14.58-16.54 14.58-10.9 9.83-20.58 12.1-24.74 12.62-1.38.17-2.74.38-4.11.61-5.74 1-17.59 1.84-26.39 2.4l-1.53-.33c18.84-1.26 32-19.44 36.9-27.27 2.62-4.23 10.92-13.71 15.23-16.89a54.57 54.57 0 0 1 14.87-7.53 44.71 44.71 0 0 1 21.36-1.76c14.88 2.4 21.39 14.7 23.94 21.76z" fill="#65deee"/><g opacity=".4"><path d="m308.68 162.74a36.6 36.6 0 1 0 -36.6 36.59 36.6 36.6 0 0 0 36.6-36.59z" fill="#ffb0ca"/></g><path d="m303.94 162.37a35.72 35.72 0 1 0 -35.72 35.72 35.72 35.72 0 0 0 35.72-35.72z" fill="#fff"/><path d="m232.47 166.16a35.76 35.76 0 0 0 71.51 0 32.36 32.36 0 0 0 -.17-3.42 35.75 35.75 0 0 1 -71.17 0c-.11 1.13-.17 2.26-.17 3.42z" fill="#f2f2f2"/><g opacity=".4"><path d="m318.82 162.74a37.08 37.08 0 1 1 37.08 37.07 37.08 37.08 0 0 1 -37.08-37.07z" fill="#ffb0ca"/></g><path d="m324 162.37a35.72 35.72 0 1 1 35.72 35.72 35.72 35.72 0 0 1 -35.72-35.72z" fill="#fff"/><path d="m395.51 166.16a35.75 35.75 0 0 1 -71.5 0c0-1.15.05-2.29.16-3.42a35.75 35.75 0 0 0 71.18 0c.11 1.13.16 2.26.16 3.42z" fill="#f2f2f2"/><path d="m267.32 119.39a2.69 2.69 0 0 0 1.68-1.39 15 15 0 0 1 14.58-7.87 2.64 2.64 0 1 0 .45-5.27c-13.81-1.2-19.56 10.33-19.8 10.82a2.65 2.65 0 0 0 3.05 3.72z" fill="#594463"/><path d="m362.24 117.58a2.69 2.69 0 0 1 -1.72-1.4 15 15 0 0 0 -14.58-7.87 2.64 2.64 0 0 1 -.45-5.27c13.81-1.19 19.56 10.33 19.8 10.82a2.65 2.65 0 0 1 -3.05 3.72z" fill="#594463"/><path d="m326 77.43c-6.74 5.34-15.25 8.59-23 5.54-4.61-1.83-6.15-5.13-6.19-10.85a23.62 23.62 0 0 1 .45-4.85 14.38 14.38 0 0 1 1-3.19s0 0 0 0c.84-1.73 2.16-2.4 4.72-1.53 6.31 2.14 12.86-.45 18.41-4.78 2-1.58 3.53-2 5-1.12a9.13 9.13 0 0 1 2.8 3.06 10.45 10.45 0 0 1 1.4 5c.24 6.07-.51 9.52-4.59 12.72z" fill="#ffb0ca"/><path d="m326.43 56.65a11.48 11.48 0 0 1 -2.85 3.08c-6.74 5.34-15.24 8.6-22.95 5.54a10.94 10.94 0 0 1 -2.29-1.19c.84-1.73 2.16-2.4 4.72-1.53 6.31 2.14 12.86-.45 18.41-4.78 2.04-1.58 3.53-1.95 4.96-1.12z" fill="#ef8bd5"/><path d="m321.57 58.53c-5.19 4.33-11.76 6.92-17.77 4.34-3.59-1.54-4.81-4.27-4.87-9a20.14 20.14 0 0 1 .31-4 8.65 8.65 0 0 1 1.12-3.28c.67-.89 1.64-1.15 3.28-.55 4.92 1.81 10-.26 14.27-3.77 2.19-1.78 3.59-1.65 5.18.43.27.36.55.77.85 1.25a9.05 9.05 0 0 1 1.12 4.14c.19 5-.37 7.84-3.49 10.44z" fill="#ffb0ca"/><path d="m323.09 42.74a10.17 10.17 0 0 1 -1.79 1.89c-5.19 4.37-11.77 6.93-17.78 4.37a7.61 7.61 0 0 1 -3.16-2.35c.67-.89 1.64-1.15 3.28-.55 4.92 1.81 10-.26 14.27-3.77 2.19-1.8 3.59-1.67 5.18.41z" fill="#ef8bd5"/><path d="m319.47 42.77c-4.42 3.82-10 6.1-15.14 3.83-3.07-1.37-4.11-3.76-4.16-7.9a20.53 20.53 0 0 1 .27-3.51 13.4 13.4 0 0 1 .44-1.79c.54-1.62 1.4-2.32 3.32-1.58 4.18 1.6 8.49-.23 12.15-3.32 1.6-1.35 2.7-1.45 3.84-.29a9.12 9.12 0 0 1 1.3 1.77 8.14 8.14 0 0 1 .95 3.65c.17 4.37-.31 6.86-2.97 9.14z" fill="#ffb0ca"/><path d="m320.19 28.21a7.79 7.79 0 0 1 -2.12 2.7c-4.43 3.81-10 6.1-15.15 3.82a7 7 0 0 1 -2-1.33c.54-1.62 1.4-2.32 3.32-1.58 4.18 1.6 8.49-.23 12.15-3.32 1.61-1.35 2.66-1.45 3.8-.29z" fill="#ef8bd5"/><path d="m316.23 30.16c-3.14 3.17-7.13 5.05-10.79 3.12-2.19-1.17-2.95-3.17-3-6.64a18.62 18.62 0 0 1 .18-2.94 6.91 6.91 0 0 1 .69-2.43c.39-.65 1-.81 2-.37 3 1.37 6.06-.14 8.65-2.7 1.42-1.4 2.3-1.17 3.37.71a4.24 4.24 0 0 1 .3.56 7.71 7.71 0 0 1 .7 3.06c.11 3.66-.22 5.75-2.1 7.63z" fill="#ffb0ca"/><path d="m317.3 18.91a7.07 7.07 0 0 1 -1.07 1.37c-3.14 3.16-7.13 5-10.79 3.11a4.75 4.75 0 0 1 -2.13-2.12c.39-.65 1-.81 2-.37 3 1.37 6.06-.14 8.65-2.7 1.39-1.4 2.27-1.2 3.34.71z" fill="#ef8bd5"/><path d="m307.94 6s-6.05 10.8-3.17 14.79c0 0 5 4 9.9-2.68 0 0 2.21-6.55-6.73-12.11z" fill="#ffb0ca"/><path d="m264.8 172.11a9.7 9.7 0 1 0 -8 7.88 9.72 9.72 0 0 0 8-7.88z" fill="#594463"/><path d="m254 177a6.83 6.83 0 1 0 -5.6 5.55 6.84 6.84 0 0 0 5.6-5.55z" fill="#fff"/><path d="m346.5 160.84a9.7 9.7 0 1 1 -9.25 6.31 9.71 9.71 0 0 1 9.25-6.31z" fill="#594463"/><path d="m339.69 170.47a6.83 6.83 0 1 1 -6.51 4.44 6.83 6.83 0 0 1 6.51-4.44z" fill="#fff"/><path d="m118.48 341.09h345.71v31.69h-345.71z" fill="#a87347"/><path d="m291.33 356.76v100.42h-81.22a24.14 24.14 0 0 1 -14.18-4.77c-23.84-17.23-39.49-45.08-48.65-66.27-2.11-4.88-3.88-9.4-5.31-13.36-3.49-9.57-5.09-15.85-5.09-15.85z" fill="#a87347"/><path d="m445.79 356.93s-1.6 6.28-5.09 15.85c-1.44 4-3.2 8.48-5.31 13.36-9.17 21.19-24.82 49-48.66 66.27a24.14 24.14 0 0 1 -14.18 4.77h-81.22v-100.42z" fill="#a87347"/><path d="m291.33 372.78 67.41 84.4h13.81s10 .72 21.06-10.22c0 0 34.07-28.16 47.09-74.18z" fill="#bc8861"/><path d="m274.56 372.78h189.63v-31.69" fill="#bc8861"/><path d="m464.19 341.09h-208.46l18.83 31.69" fill="#bc8861"/><g opacity=".26"><path d="m440.7 372.78c-1.44 4-3.2 8.48-5.31 13.36h-288.11c-2.11-4.88-3.88-9.4-5.31-13.36z" fill="#231f19"/></g><g fill="#97f8ff"><path d="m369.61 491.48a42.61 42.61 0 0 1 -14.61 10.22 49.22 49.22 0 0 1 -17.64 4.23 50.36 50.36 0 0 1 -26.36-5.85 31.69 31.69 0 0 1 -3.79-2.38c-1.23-.86-2.44-1.72-3.59-2.63 1.46.36 2.87.78 4.26 1.2a40.4 40.4 0 0 0 4.16 1.22 82.37 82.37 0 0 0 8.32 1.79 71 71 0 0 0 16.62 1 75.84 75.84 0 0 0 16.48-2.72 103.18 103.18 0 0 0 16.15-6.08z"/><path d="m155.94 479.3c2.77 1.07 5.26 2 7.71 2.71a34.69 34.69 0 0 0 7.18 1.35 28.89 28.89 0 0 0 7.22-.29c1.27-.08 2.48-.5 3.84-.7s2.62-.73 4.16-.93a17.74 17.74 0 0 1 -2.86 3.39 17.34 17.34 0 0 1 -12.82 4.17 18.2 18.2 0 0 1 -8.66-3 15.66 15.66 0 0 1 -5.77-6.7z"/><path d="m405.38 460.39a98.44 98.44 0 0 1 -20.19 9.26 166.56 166.56 0 0 1 -21.55 5.77 208 208 0 0 1 -22.1 3.12c-3.7.45-7.42.53-11.14.66s-7.43.37-11.15.23l-11.14-.34c-3.71-.18-7.41-.53-11.11-.86-7.4-.58-14.73-1.79-22-3s-14.49-3.12-21.68-4.75c-7.11-2.05-14.17-4.23-21.13-6.66 7.37.79 14.61 2 21.86 3l10.9 1.28c3.63.39 7.22 1.06 10.87 1.26 7.28.49 14.48 1.56 21.76 1.71 3.63.15 7.25.52 10.88.62l10.88.16c3.62.19 7.24 0 10.87-.06l5.43-.1c1.82 0 3.62-.24 5.43-.3 7.25-.25 14.45-1 21.66-1.8 7.19-1 14.4-2 21.5-3.52a157 157 0 0 0 21.15-5.68z"/><path d="m133.1 459.29a102.64 102.64 0 0 0 19.57 4.23 152.36 152.36 0 0 0 19.56 1.06l4.91-.1c1.63 0 3.27-.21 4.91-.28 3.3-.07 6.57-.55 9.9-.76s6.61-.81 10-1.05c3.36-.4 6.71-.91 10.23-1.06a98.5 98.5 0 0 1 -9.3 4.67c-3.24 1.18-6.5 2.43-9.86 3.3a80.83 80.83 0 0 1 -10.25 2.05c-1.74.22-3.47.47-5.22.6l-5.26.2a72.55 72.55 0 0 1 -20.86-2.82 54.34 54.34 0 0 1 -9.79-3.95 34.23 34.23 0 0 1 -8.54-6.09z"/></g></svg>